<svg width="526" height="73" viewBox="0 0 526 73" fill="none" xmlns="http://www.w3.org/2000/svg">
<mask id="path-1-outside-1_94_24" maskUnits="userSpaceOnUse" x="0.52124" y="0.187622" width="525" height="72" fill="black">
<rect fill="white" x="0.52124" y="0.187622" width="525" height="72"/>
<path d="M40.1283 65H9.40185C8.3883 65 7.64148 64.7866 7.16137 64.3598C6.73462 63.8797 6.52124 63.1329 6.52124 62.1194V10.2685C6.52124 9.25493 6.73462 8.53478 7.16137 8.10802C7.64148 7.62792 8.3883 7.38787 9.40185 7.38787H34.9272C40.155 7.38787 44.0225 8.40142 46.5296 10.4285C49.0368 12.4023 50.2904 15.4696 50.2904 19.6304V23.4713C50.2904 25.7117 49.8904 27.5521 49.0902 28.9924C48.3434 30.3794 47.1698 31.4196 45.5695 32.1131C48.9835 32.4331 51.5174 33.6067 53.171 35.6338C54.8247 37.6609 55.6516 40.6215 55.6516 44.5157V51.8772C55.6516 56.3582 54.3713 59.6655 51.8108 61.7993C49.3036 63.9331 45.4094 65 40.1283 65ZM24.525 20.9907V29.6325H31.3265C32.34 29.6325 33.0868 29.3658 33.5669 28.8324C34.1004 28.2989 34.3671 27.4988 34.3671 26.4319V24.1914C34.3671 23.1245 34.1004 22.3243 33.5669 21.7909C33.0868 21.2575 32.34 20.9907 31.3265 20.9907H24.525ZM24.525 41.9551V51.3971H34.9272C35.9408 51.3971 36.6876 51.1304 37.1677 50.597C37.7011 50.0635 37.9678 49.2633 37.9678 48.1964V45.0758C37.9678 44.0089 37.7011 43.2354 37.1677 42.7553C36.6876 42.2219 35.9408 41.9551 34.9272 41.9551H24.525Z"/>
<path d="M109.712 65H68.9831C67.9696 65 67.2227 64.7866 66.7426 64.3598C66.3159 63.8797 66.1025 63.1329 66.1025 62.1194V10.2685C66.1025 9.25493 66.3159 8.53478 66.7426 8.10802C67.2227 7.62792 67.9696 7.38787 68.9831 7.38787H81.3857C82.3993 7.38787 83.1194 7.62792 83.5462 8.10802C84.0263 8.53478 84.2663 9.25493 84.2663 10.2685V49.8768H95.2286V36.9141C95.2286 35.9005 95.442 35.1804 95.8688 34.7536C96.3489 34.2735 97.0957 34.0335 98.1092 34.0335H109.712C110.725 34.0335 111.445 34.2735 111.872 34.7536C112.352 35.1804 112.592 35.9005 112.592 36.9141V62.1194C112.592 63.1329 112.352 63.8797 111.872 64.3598C111.445 64.7866 110.725 65 109.712 65Z"/>
<path d="M172.15 49.8768C172.15 52.3307 171.776 54.5711 171.03 56.5982C170.336 58.572 169.056 60.279 167.189 61.7193C165.375 63.1062 162.841 64.1998 159.587 65C156.386 65.8001 152.306 66.2002 147.345 66.2002C142.384 66.2002 138.276 65.8001 135.022 65C131.768 64.1998 129.207 63.1062 127.34 61.7193C125.527 60.279 124.246 58.572 123.5 56.5982C122.806 54.5711 122.459 52.3307 122.459 49.8768V22.5911C122.459 20.1372 122.806 17.9234 123.5 15.9497C124.246 13.9226 125.527 12.1889 127.34 10.7486C129.207 9.30828 131.768 8.18804 135.022 7.38787C138.276 6.58771 142.384 6.18762 147.345 6.18762C152.306 6.18762 156.386 6.58771 159.587 7.38787C162.841 8.18804 165.375 9.30828 167.189 10.7486C169.056 12.1889 170.336 13.9226 171.03 15.9497C171.776 17.9234 172.15 20.1372 172.15 22.5911V49.8768ZM140.623 46.9962C140.623 48.0631 141.023 48.9699 141.823 49.7168C142.624 50.4102 144.464 50.757 147.345 50.757C150.225 50.757 152.066 50.4102 152.866 49.7168C153.666 48.9699 154.066 48.0631 154.066 46.9962V25.4717C154.066 24.4581 153.666 23.6046 152.866 22.9111C152.066 22.1643 150.225 21.7909 147.345 21.7909C144.464 21.7909 142.624 22.1643 141.823 22.9111C141.023 23.6046 140.623 24.4581 140.623 25.4717V46.9962Z"/>
<path d="M222.265 65H202.741C196.073 65 191.111 63.6664 187.857 60.9991C184.657 58.3319 183.056 54.2244 183.056 48.6766V23.7913C183.056 18.2435 184.657 14.136 187.857 11.4687C191.111 8.74816 196.073 7.38787 202.741 7.38787H222.265C223.278 7.38787 223.998 7.62792 224.425 8.10802C224.905 8.53478 225.145 9.25493 225.145 10.2685V19.9505C225.145 20.9641 224.905 21.7109 224.425 22.191C223.998 22.6177 223.278 22.8311 222.265 22.8311H206.181C204.528 22.8311 203.301 23.1779 202.501 23.8713C201.7 24.5115 201.3 25.4983 201.3 26.832V45.876C201.3 47.2096 201.7 48.1965 202.501 48.8366C203.301 49.4234 204.528 49.7168 206.181 49.7168H222.265C223.278 49.7168 223.998 49.9568 224.425 50.4369C224.905 50.8637 225.145 51.5838 225.145 52.5974V62.1194C225.145 63.1329 224.905 63.8797 224.425 64.3598C223.998 64.7866 223.278 65 222.265 65Z"/>
<path d="M251.065 65H238.663C237.649 65 236.902 64.7866 236.422 64.3598C235.995 63.8797 235.782 63.1329 235.782 62.1194V10.2685C235.782 9.25493 235.995 8.53478 236.422 8.10802C236.902 7.62792 237.649 7.38787 238.663 7.38787H251.065C252.079 7.38787 252.799 7.62792 253.226 8.10802C253.706 8.53478 253.946 9.25493 253.946 10.2685V28.6723H257.146L265.388 10.0284C265.762 9.06823 266.268 8.40142 266.908 8.02801C267.549 7.60125 268.375 7.38787 269.389 7.38787H281.712C282.618 7.38787 283.232 7.62792 283.552 8.10802C283.872 8.53478 283.845 9.17492 283.472 10.0284L275.31 28.6723C278.298 28.8324 280.671 29.8993 282.432 31.873C284.245 33.7934 285.152 36.354 285.152 39.5546V62.1194C285.152 63.1329 284.912 63.8797 284.432 64.3598C284.005 64.7866 283.285 65 282.272 65H269.949C268.936 65 268.189 64.7866 267.709 64.3598C267.282 63.8797 267.068 63.1329 267.068 62.1194V46.5161C267.068 45.6626 266.855 44.9958 266.428 44.5157C266.002 44.0356 265.361 43.7955 264.508 43.7955H253.946V62.1194C253.946 63.1329 253.706 63.8797 253.226 64.3598C252.799 64.7866 252.079 65 251.065 65Z"/>
<path d="M322.256 65H309.294C308.28 65 307.533 64.7866 307.053 64.3598C306.626 63.8797 306.413 63.1329 306.413 62.1194V22.8311H294.651C293.637 22.8311 292.89 22.6177 292.41 22.191C291.983 21.7109 291.77 20.9641 291.77 19.9505V10.2685C291.77 9.25493 291.983 8.53478 292.41 8.10802C292.89 7.62792 293.637 7.38787 294.651 7.38787H336.899C337.913 7.38787 338.633 7.62792 339.06 8.10802C339.54 8.53478 339.78 9.25493 339.78 10.2685V19.9505C339.78 20.9641 339.54 21.7109 339.06 22.191C338.633 22.6177 337.913 22.8311 336.899 22.8311H325.137V62.1194C325.137 63.1329 324.897 63.8797 324.417 64.3598C323.99 64.7866 323.27 65 322.256 65Z"/>
<path d="M367.246 21.7909V32.0331H373.247C374.634 32.0331 375.568 31.6863 376.048 30.9928C376.528 30.246 376.768 29.3392 376.768 28.2723V25.5517C376.768 24.4848 376.528 23.6046 376.048 22.9111C375.568 22.1643 374.634 21.7909 373.247 21.7909H367.246ZM364.365 65H352.043C351.029 65 350.282 64.7866 349.802 64.3598C349.375 63.8797 349.162 63.1329 349.162 62.1194V10.2685C349.162 9.25493 349.375 8.53478 349.802 8.10802C350.282 7.62792 351.029 7.38787 352.043 7.38787H378.688C384.663 7.38787 388.77 8.64147 391.011 11.1487C393.305 13.6025 394.452 16.8032 394.452 20.7507V24.4315C394.452 26.6719 394.105 28.5923 393.411 30.1927C392.771 31.7397 391.624 32.8599 389.971 33.5534C392.851 33.8734 395.172 35.047 396.932 37.0741C398.746 39.1012 399.653 41.7951 399.653 45.1558V62.1194C399.653 63.1329 399.413 63.8797 398.932 64.3598C398.506 64.7866 397.786 65 396.772 65H384.369C383.356 65 382.609 64.7866 382.129 64.3598C381.702 63.8797 381.489 63.1329 381.489 62.1194V49.8768C381.489 48.7032 381.249 47.8497 380.769 47.3163C380.342 46.7295 379.568 46.4361 378.448 46.4361H367.246V62.1194C367.246 63.1329 367.006 63.8797 366.526 64.3598C366.099 64.7866 365.379 65 364.365 65Z"/>
<path d="M458.648 49.8768C458.648 52.3307 458.274 54.5711 457.527 56.5982C456.834 58.572 455.554 60.279 453.686 61.7193C451.873 63.1062 449.339 64.1998 446.085 65C442.884 65.8001 438.803 66.2002 433.842 66.2002C428.881 66.2002 424.774 65.8001 421.52 65C418.266 64.1998 415.705 63.1062 413.838 61.7193C412.024 60.279 410.744 58.572 409.997 56.5982C409.304 54.5711 408.957 52.3307 408.957 49.8768V22.5911C408.957 20.1372 409.304 17.9234 409.997 15.9497C410.744 13.9226 412.024 12.1889 413.838 10.7486C415.705 9.30828 418.266 8.18804 421.52 7.38787C424.774 6.58771 428.881 6.18762 433.842 6.18762C438.803 6.18762 442.884 6.58771 446.085 7.38787C449.339 8.18804 451.873 9.30828 453.686 10.7486C455.554 12.1889 456.834 13.9226 457.527 15.9497C458.274 17.9234 458.648 20.1372 458.648 22.5911V49.8768ZM427.121 46.9962C427.121 48.0631 427.521 48.9699 428.321 49.7168C429.121 50.4102 430.962 50.757 433.842 50.757C436.723 50.757 438.563 50.4102 439.363 49.7168C440.164 48.9699 440.564 48.0631 440.564 46.9962V25.4717C440.564 24.4581 440.164 23.6046 439.363 22.9111C438.563 22.1643 436.723 21.7909 433.842 21.7909C430.962 21.7909 429.121 22.1643 428.321 22.9111C427.521 23.6046 427.121 24.4581 427.121 25.4717V46.9962Z"/>
<path d="M485.317 65H473.315C472.301 65 471.555 64.7866 471.074 64.3598C470.648 63.8797 470.434 63.1329 470.434 62.1194V10.2685C470.434 9.25493 470.648 8.53478 471.074 8.10802C471.555 7.62792 472.301 7.38787 473.315 7.38787H481.637C482.65 7.38787 483.504 7.54791 484.197 7.86797C484.944 8.18804 485.664 8.74816 486.358 9.54833L501.881 27.3121V10.2685C501.881 9.25493 502.094 8.53478 502.521 8.10802C503.001 7.62792 503.748 7.38787 504.762 7.38787H516.764C517.778 7.38787 518.498 7.62792 518.925 8.10802C519.405 8.53478 519.645 9.25493 519.645 10.2685V62.1194C519.645 63.1329 519.405 63.8797 518.925 64.3598C518.498 64.7866 517.778 65 516.764 65H504.762C503.748 65 503.001 64.7866 502.521 64.3598C502.094 63.8797 501.881 63.1329 501.881 62.1194V52.2773L488.198 35.7138V62.1194C488.198 63.1329 487.958 63.8797 487.478 64.3598C487.051 64.7866 486.331 65 485.317 65Z"/>
</mask>
<path d="M40.1283 65H9.40185C8.3883 65 7.64148 64.7866 7.16137 64.3598C6.73462 63.8797 6.52124 63.1329 6.52124 62.1194V10.2685C6.52124 9.25493 6.73462 8.53478 7.16137 8.10802C7.64148 7.62792 8.3883 7.38787 9.40185 7.38787H34.9272C40.155 7.38787 44.0225 8.40142 46.5296 10.4285C49.0368 12.4023 50.2904 15.4696 50.2904 19.6304V23.4713C50.2904 25.7117 49.8904 27.5521 49.0902 28.9924C48.3434 30.3794 47.1698 31.4196 45.5695 32.1131C48.9835 32.4331 51.5174 33.6067 53.171 35.6338C54.8247 37.6609 55.6516 40.6215 55.6516 44.5157V51.8772C55.6516 56.3582 54.3713 59.6655 51.8108 61.7993C49.3036 63.9331 45.4094 65 40.1283 65ZM24.525 20.9907V29.6325H31.3265C32.34 29.6325 33.0868 29.3658 33.5669 28.8324C34.1004 28.2989 34.3671 27.4988 34.3671 26.4319V24.1914C34.3671 23.1245 34.1004 22.3243 33.5669 21.7909C33.0868 21.2575 32.34 20.9907 31.3265 20.9907H24.525ZM24.525 41.9551V51.3971H34.9272C35.9408 51.3971 36.6876 51.1304 37.1677 50.597C37.7011 50.0635 37.9678 49.2633 37.9678 48.1964V45.0758C37.9678 44.0089 37.7011 43.2354 37.1677 42.7553C36.6876 42.2219 35.9408 41.9551 34.9272 41.9551H24.525Z" fill="white"/>
<path d="M109.712 65H68.9831C67.9696 65 67.2227 64.7866 66.7426 64.3598C66.3159 63.8797 66.1025 63.1329 66.1025 62.1194V10.2685C66.1025 9.25493 66.3159 8.53478 66.7426 8.10802C67.2227 7.62792 67.9696 7.38787 68.9831 7.38787H81.3857C82.3993 7.38787 83.1194 7.62792 83.5462 8.10802C84.0263 8.53478 84.2663 9.25493 84.2663 10.2685V49.8768H95.2286V36.9141C95.2286 35.9005 95.442 35.1804 95.8688 34.7536C96.3489 34.2735 97.0957 34.0335 98.1092 34.0335H109.712C110.725 34.0335 111.445 34.2735 111.872 34.7536C112.352 35.1804 112.592 35.9005 112.592 36.9141V62.1194C112.592 63.1329 112.352 63.8797 111.872 64.3598C111.445 64.7866 110.725 65 109.712 65Z" fill="white"/>
<path d="M172.15 49.8768C172.15 52.3307 171.776 54.5711 171.03 56.5982C170.336 58.572 169.056 60.279 167.189 61.7193C165.375 63.1062 162.841 64.1998 159.587 65C156.386 65.8001 152.306 66.2002 147.345 66.2002C142.384 66.2002 138.276 65.8001 135.022 65C131.768 64.1998 129.207 63.1062 127.34 61.7193C125.527 60.279 124.246 58.572 123.5 56.5982C122.806 54.5711 122.459 52.3307 122.459 49.8768V22.5911C122.459 20.1372 122.806 17.9234 123.5 15.9497C124.246 13.9226 125.527 12.1889 127.34 10.7486C129.207 9.30828 131.768 8.18804 135.022 7.38787C138.276 6.58771 142.384 6.18762 147.345 6.18762C152.306 6.18762 156.386 6.58771 159.587 7.38787C162.841 8.18804 165.375 9.30828 167.189 10.7486C169.056 12.1889 170.336 13.9226 171.03 15.9497C171.776 17.9234 172.15 20.1372 172.15 22.5911V49.8768ZM140.623 46.9962C140.623 48.0631 141.023 48.9699 141.823 49.7168C142.624 50.4102 144.464 50.757 147.345 50.757C150.225 50.757 152.066 50.4102 152.866 49.7168C153.666 48.9699 154.066 48.0631 154.066 46.9962V25.4717C154.066 24.4581 153.666 23.6046 152.866 22.9111C152.066 22.1643 150.225 21.7909 147.345 21.7909C144.464 21.7909 142.624 22.1643 141.823 22.9111C141.023 23.6046 140.623 24.4581 140.623 25.4717V46.9962Z" fill="white"/>
<path d="M222.265 65H202.741C196.073 65 191.111 63.6664 187.857 60.9991C184.657 58.3319 183.056 54.2244 183.056 48.6766V23.7913C183.056 18.2435 184.657 14.136 187.857 11.4687C191.111 8.74816 196.073 7.38787 202.741 7.38787H222.265C223.278 7.38787 223.998 7.62792 224.425 8.10802C224.905 8.53478 225.145 9.25493 225.145 10.2685V19.9505C225.145 20.9641 224.905 21.7109 224.425 22.191C223.998 22.6177 223.278 22.8311 222.265 22.8311H206.181C204.528 22.8311 203.301 23.1779 202.501 23.8713C201.7 24.5115 201.3 25.4983 201.3 26.832V45.876C201.3 47.2096 201.7 48.1965 202.501 48.8366C203.301 49.4234 204.528 49.7168 206.181 49.7168H222.265C223.278 49.7168 223.998 49.9568 224.425 50.4369C224.905 50.8637 225.145 51.5838 225.145 52.5974V62.1194C225.145 63.1329 224.905 63.8797 224.425 64.3598C223.998 64.7866 223.278 65 222.265 65Z" fill="white"/>
<path d="M251.065 65H238.663C237.649 65 236.902 64.7866 236.422 64.3598C235.995 63.8797 235.782 63.1329 235.782 62.1194V10.2685C235.782 9.25493 235.995 8.53478 236.422 8.10802C236.902 7.62792 237.649 7.38787 238.663 7.38787H251.065C252.079 7.38787 252.799 7.62792 253.226 8.10802C253.706 8.53478 253.946 9.25493 253.946 10.2685V28.6723H257.146L265.388 10.0284C265.762 9.06823 266.268 8.40142 266.908 8.02801C267.549 7.60125 268.375 7.38787 269.389 7.38787H281.712C282.618 7.38787 283.232 7.62792 283.552 8.10802C283.872 8.53478 283.845 9.17492 283.472 10.0284L275.31 28.6723C278.298 28.8324 280.671 29.8993 282.432 31.873C284.245 33.7934 285.152 36.354 285.152 39.5546V62.1194C285.152 63.1329 284.912 63.8797 284.432 64.3598C284.005 64.7866 283.285 65 282.272 65H269.949C268.936 65 268.189 64.7866 267.709 64.3598C267.282 63.8797 267.068 63.1329 267.068 62.1194V46.5161C267.068 45.6626 266.855 44.9958 266.428 44.5157C266.002 44.0356 265.361 43.7955 264.508 43.7955H253.946V62.1194C253.946 63.1329 253.706 63.8797 253.226 64.3598C252.799 64.7866 252.079 65 251.065 65Z" fill="white"/>
<path d="M322.256 65H309.294C308.28 65 307.533 64.7866 307.053 64.3598C306.626 63.8797 306.413 63.1329 306.413 62.1194V22.8311H294.651C293.637 22.8311 292.89 22.6177 292.41 22.191C291.983 21.7109 291.77 20.9641 291.77 19.9505V10.2685C291.77 9.25493 291.983 8.53478 292.41 8.10802C292.89 7.62792 293.637 7.38787 294.651 7.38787H336.899C337.913 7.38787 338.633 7.62792 339.06 8.10802C339.54 8.53478 339.78 9.25493 339.78 10.2685V19.9505C339.78 20.9641 339.54 21.7109 339.06 22.191C338.633 22.6177 337.913 22.8311 336.899 22.8311H325.137V62.1194C325.137 63.1329 324.897 63.8797 324.417 64.3598C323.99 64.7866 323.27 65 322.256 65Z" fill="white"/>
<path d="M367.246 21.7909V32.0331H373.247C374.634 32.0331 375.568 31.6863 376.048 30.9928C376.528 30.246 376.768 29.3392 376.768 28.2723V25.5517C376.768 24.4848 376.528 23.6046 376.048 22.9111C375.568 22.1643 374.634 21.7909 373.247 21.7909H367.246ZM364.365 65H352.043C351.029 65 350.282 64.7866 349.802 64.3598C349.375 63.8797 349.162 63.1329 349.162 62.1194V10.2685C349.162 9.25493 349.375 8.53478 349.802 8.10802C350.282 7.62792 351.029 7.38787 352.043 7.38787H378.688C384.663 7.38787 388.77 8.64147 391.011 11.1487C393.305 13.6025 394.452 16.8032 394.452 20.7507V24.4315C394.452 26.6719 394.105 28.5923 393.411 30.1927C392.771 31.7397 391.624 32.8599 389.971 33.5534C392.851 33.8734 395.172 35.047 396.932 37.0741C398.746 39.1012 399.653 41.7951 399.653 45.1558V62.1194C399.653 63.1329 399.413 63.8797 398.932 64.3598C398.506 64.7866 397.786 65 396.772 65H384.369C383.356 65 382.609 64.7866 382.129 64.3598C381.702 63.8797 381.489 63.1329 381.489 62.1194V49.8768C381.489 48.7032 381.249 47.8497 380.769 47.3163C380.342 46.7295 379.568 46.4361 378.448 46.4361H367.246V62.1194C367.246 63.1329 367.006 63.8797 366.526 64.3598C366.099 64.7866 365.379 65 364.365 65Z" fill="white"/>
<path d="M458.648 49.8768C458.648 52.3307 458.274 54.5711 457.527 56.5982C456.834 58.572 455.554 60.279 453.686 61.7193C451.873 63.1062 449.339 64.1998 446.085 65C442.884 65.8001 438.803 66.2002 433.842 66.2002C428.881 66.2002 424.774 65.8001 421.52 65C418.266 64.1998 415.705 63.1062 413.838 61.7193C412.024 60.279 410.744 58.572 409.997 56.5982C409.304 54.5711 408.957 52.3307 408.957 49.8768V22.5911C408.957 20.1372 409.304 17.9234 409.997 15.9497C410.744 13.9226 412.024 12.1889 413.838 10.7486C415.705 9.30828 418.266 8.18804 421.52 7.38787C424.774 6.58771 428.881 6.18762 433.842 6.18762C438.803 6.18762 442.884 6.58771 446.085 7.38787C449.339 8.18804 451.873 9.30828 453.686 10.7486C455.554 12.1889 456.834 13.9226 457.527 15.9497C458.274 17.9234 458.648 20.1372 458.648 22.5911V49.8768ZM427.121 46.9962C427.121 48.0631 427.521 48.9699 428.321 49.7168C429.121 50.4102 430.962 50.757 433.842 50.757C436.723 50.757 438.563 50.4102 439.363 49.7168C440.164 48.9699 440.564 48.0631 440.564 46.9962V25.4717C440.564 24.4581 440.164 23.6046 439.363 22.9111C438.563 22.1643 436.723 21.7909 433.842 21.7909C430.962 21.7909 429.121 22.1643 428.321 22.9111C427.521 23.6046 427.121 24.4581 427.121 25.4717V46.9962Z" fill="white"/>
<path d="M485.317 65H473.315C472.301 65 471.555 64.7866 471.074 64.3598C470.648 63.8797 470.434 63.1329 470.434 62.1194V10.2685C470.434 9.25493 470.648 8.53478 471.074 8.10802C471.555 7.62792 472.301 7.38787 473.315 7.38787H481.637C482.65 7.38787 483.504 7.54791 484.197 7.86797C484.944 8.18804 485.664 8.74816 486.358 9.54833L501.881 27.3121V10.2685C501.881 9.25493 502.094 8.53478 502.521 8.10802C503.001 7.62792 503.748 7.38787 504.762 7.38787H516.764C517.778 7.38787 518.498 7.62792 518.925 8.10802C519.405 8.53478 519.645 9.25493 519.645 10.2685V62.1194C519.645 63.1329 519.405 63.8797 518.925 64.3598C518.498 64.7866 517.778 65 516.764 65H504.762C503.748 65 503.001 64.7866 502.521 64.3598C502.094 63.8797 501.881 63.1329 501.881 62.1194V52.2773L488.198 35.7138V62.1194C488.198 63.1329 487.958 63.8797 487.478 64.3598C487.051 64.7866 486.331 65 485.317 65Z" fill="white"/>
<path d="M40.1283 65H9.40185C8.3883 65 7.64148 64.7866 7.16137 64.3598C6.73462 63.8797 6.52124 63.1329 6.52124 62.1194V10.2685C6.52124 9.25493 6.73462 8.53478 7.16137 8.10802C7.64148 7.62792 8.3883 7.38787 9.40185 7.38787H34.9272C40.155 7.38787 44.0225 8.40142 46.5296 10.4285C49.0368 12.4023 50.2904 15.4696 50.2904 19.6304V23.4713C50.2904 25.7117 49.8904 27.5521 49.0902 28.9924C48.3434 30.3794 47.1698 31.4196 45.5695 32.1131C48.9835 32.4331 51.5174 33.6067 53.171 35.6338C54.8247 37.6609 55.6516 40.6215 55.6516 44.5157V51.8772C55.6516 56.3582 54.3713 59.6655 51.8108 61.7993C49.3036 63.9331 45.4094 65 40.1283 65ZM24.525 20.9907V29.6325H31.3265C32.34 29.6325 33.0868 29.3658 33.5669 28.8324C34.1004 28.2989 34.3671 27.4988 34.3671 26.4319V24.1914C34.3671 23.1245 34.1004 22.3243 33.5669 21.7909C33.0868 21.2575 32.34 20.9907 31.3265 20.9907H24.525ZM24.525 41.9551V51.3971H34.9272C35.9408 51.3971 36.6876 51.1304 37.1677 50.597C37.7011 50.0635 37.9678 49.2633 37.9678 48.1964V45.0758C37.9678 44.0089 37.7011 43.2354 37.1677 42.7553C36.6876 42.2219 35.9408 41.9551 34.9272 41.9551H24.525Z" stroke="black" stroke-width="11.6418" mask="url(#path-1-outside-1_94_24)"/>
<path d="M109.712 65H68.9831C67.9696 65 67.2227 64.7866 66.7426 64.3598C66.3159 63.8797 66.1025 63.1329 66.1025 62.1194V10.2685C66.1025 9.25493 66.3159 8.53478 66.7426 8.10802C67.2227 7.62792 67.9696 7.38787 68.9831 7.38787H81.3857C82.3993 7.38787 83.1194 7.62792 83.5462 8.10802C84.0263 8.53478 84.2663 9.25493 84.2663 10.2685V49.8768H95.2286V36.9141C95.2286 35.9005 95.442 35.1804 95.8688 34.7536C96.3489 34.2735 97.0957 34.0335 98.1092 34.0335H109.712C110.725 34.0335 111.445 34.2735 111.872 34.7536C112.352 35.1804 112.592 35.9005 112.592 36.9141V62.1194C112.592 63.1329 112.352 63.8797 111.872 64.3598C111.445 64.7866 110.725 65 109.712 65Z" stroke="black" stroke-width="11.6418" mask="url(#path-1-outside-1_94_24)"/>
<path d="M172.15 49.8768C172.15 52.3307 171.776 54.5711 171.03 56.5982C170.336 58.572 169.056 60.279 167.189 61.7193C165.375 63.1062 162.841 64.1998 159.587 65C156.386 65.8001 152.306 66.2002 147.345 66.2002C142.384 66.2002 138.276 65.8001 135.022 65C131.768 64.1998 129.207 63.1062 127.34 61.7193C125.527 60.279 124.246 58.572 123.5 56.5982C122.806 54.5711 122.459 52.3307 122.459 49.8768V22.5911C122.459 20.1372 122.806 17.9234 123.5 15.9497C124.246 13.9226 125.527 12.1889 127.34 10.7486C129.207 9.30828 131.768 8.18804 135.022 7.38787C138.276 6.58771 142.384 6.18762 147.345 6.18762C152.306 6.18762 156.386 6.58771 159.587 7.38787C162.841 8.18804 165.375 9.30828 167.189 10.7486C169.056 12.1889 170.336 13.9226 171.03 15.9497C171.776 17.9234 172.15 20.1372 172.15 22.5911V49.8768ZM140.623 46.9962C140.623 48.0631 141.023 48.9699 141.823 49.7168C142.624 50.4102 144.464 50.757 147.345 50.757C150.225 50.757 152.066 50.4102 152.866 49.7168C153.666 48.9699 154.066 48.0631 154.066 46.9962V25.4717C154.066 24.4581 153.666 23.6046 152.866 22.9111C152.066 22.1643 150.225 21.7909 147.345 21.7909C144.464 21.7909 142.624 22.1643 141.823 22.9111C141.023 23.6046 140.623 24.4581 140.623 25.4717V46.9962Z" stroke="black" stroke-width="11.6418" mask="url(#path-1-outside-1_94_24)"/>
<path d="M222.265 65H202.741C196.073 65 191.111 63.6664 187.857 60.9991C184.657 58.3319 183.056 54.2244 183.056 48.6766V23.7913C183.056 18.2435 184.657 14.136 187.857 11.4687C191.111 8.74816 196.073 7.38787 202.741 7.38787H222.265C223.278 7.38787 223.998 7.62792 224.425 8.10802C224.905 8.53478 225.145 9.25493 225.145 10.2685V19.9505C225.145 20.9641 224.905 21.7109 224.425 22.191C223.998 22.6177 223.278 22.8311 222.265 22.8311H206.181C204.528 22.8311 203.301 23.1779 202.501 23.8713C201.7 24.5115 201.3 25.4983 201.3 26.832V45.876C201.3 47.2096 201.7 48.1965 202.501 48.8366C203.301 49.4234 204.528 49.7168 206.181 49.7168H222.265C223.278 49.7168 223.998 49.9568 224.425 50.4369C224.905 50.8637 225.145 51.5838 225.145 52.5974V62.1194C225.145 63.1329 224.905 63.8797 224.425 64.3598C223.998 64.7866 223.278 65 222.265 65Z" stroke="black" stroke-width="11.6418" mask="url(#path-1-outside-1_94_24)"/>
<path d="M251.065 65H238.663C237.649 65 236.902 64.7866 236.422 64.3598C235.995 63.8797 235.782 63.1329 235.782 62.1194V10.2685C235.782 9.25493 235.995 8.53478 236.422 8.10802C236.902 7.62792 237.649 7.38787 238.663 7.38787H251.065C252.079 7.38787 252.799 7.62792 253.226 8.10802C253.706 8.53478 253.946 9.25493 253.946 10.2685V28.6723H257.146L265.388 10.0284C265.762 9.06823 266.268 8.40142 266.908 8.02801C267.549 7.60125 268.375 7.38787 269.389 7.38787H281.712C282.618 7.38787 283.232 7.62792 283.552 8.10802C283.872 8.53478 283.845 9.17492 283.472 10.0284L275.31 28.6723C278.298 28.8324 280.671 29.8993 282.432 31.873C284.245 33.7934 285.152 36.354 285.152 39.5546V62.1194C285.152 63.1329 284.912 63.8797 284.432 64.3598C284.005 64.7866 283.285 65 282.272 65H269.949C268.936 65 268.189 64.7866 267.709 64.3598C267.282 63.8797 267.068 63.1329 267.068 62.1194V46.5161C267.068 45.6626 266.855 44.9958 266.428 44.5157C266.002 44.0356 265.361 43.7955 264.508 43.7955H253.946V62.1194C253.946 63.1329 253.706 63.8797 253.226 64.3598C252.799 64.7866 252.079 65 251.065 65Z" stroke="black" stroke-width="11.6418" mask="url(#path-1-outside-1_94_24)"/>
<path d="M322.256 65H309.294C308.28 65 307.533 64.7866 307.053 64.3598C306.626 63.8797 306.413 63.1329 306.413 62.1194V22.8311H294.651C293.637 22.8311 292.89 22.6177 292.41 22.191C291.983 21.7109 291.77 20.9641 291.77 19.9505V10.2685C291.77 9.25493 291.983 8.53478 292.41 8.10802C292.89 7.62792 293.637 7.38787 294.651 7.38787H336.899C337.913 7.38787 338.633 7.62792 339.06 8.10802C339.54 8.53478 339.78 9.25493 339.78 10.2685V19.9505C339.78 20.9641 339.54 21.7109 339.06 22.191C338.633 22.6177 337.913 22.8311 336.899 22.8311H325.137V62.1194C325.137 63.1329 324.897 63.8797 324.417 64.3598C323.99 64.7866 323.27 65 322.256 65Z" stroke="black" stroke-width="11.6418" mask="url(#path-1-outside-1_94_24)"/>
<path d="M367.246 21.7909V32.0331H373.247C374.634 32.0331 375.568 31.6863 376.048 30.9928C376.528 30.246 376.768 29.3392 376.768 28.2723V25.5517C376.768 24.4848 376.528 23.6046 376.048 22.9111C375.568 22.1643 374.634 21.7909 373.247 21.7909H367.246ZM364.365 65H352.043C351.029 65 350.282 64.7866 349.802 64.3598C349.375 63.8797 349.162 63.1329 349.162 62.1194V10.2685C349.162 9.25493 349.375 8.53478 349.802 8.10802C350.282 7.62792 351.029 7.38787 352.043 7.38787H378.688C384.663 7.38787 388.77 8.64147 391.011 11.1487C393.305 13.6025 394.452 16.8032 394.452 20.7507V24.4315C394.452 26.6719 394.105 28.5923 393.411 30.1927C392.771 31.7397 391.624 32.8599 389.971 33.5534C392.851 33.8734 395.172 35.047 396.932 37.0741C398.746 39.1012 399.653 41.7951 399.653 45.1558V62.1194C399.653 63.1329 399.413 63.8797 398.932 64.3598C398.506 64.7866 397.786 65 396.772 65H384.369C383.356 65 382.609 64.7866 382.129 64.3598C381.702 63.8797 381.489 63.1329 381.489 62.1194V49.8768C381.489 48.7032 381.249 47.8497 380.769 47.3163C380.342 46.7295 379.568 46.4361 378.448 46.4361H367.246V62.1194C367.246 63.1329 367.006 63.8797 366.526 64.3598C366.099 64.7866 365.379 65 364.365 65Z" stroke="black" stroke-width="11.6418" mask="url(#path-1-outside-1_94_24)"/>
<path d="M458.648 49.8768C458.648 52.3307 458.274 54.5711 457.527 56.5982C456.834 58.572 455.554 60.279 453.686 61.7193C451.873 63.1062 449.339 64.1998 446.085 65C442.884 65.8001 438.803 66.2002 433.842 66.2002C428.881 66.2002 424.774 65.8001 421.52 65C418.266 64.1998 415.705 63.1062 413.838 61.7193C412.024 60.279 410.744 58.572 409.997 56.5982C409.304 54.5711 408.957 52.3307 408.957 49.8768V22.5911C408.957 20.1372 409.304 17.9234 409.997 15.9497C410.744 13.9226 412.024 12.1889 413.838 10.7486C415.705 9.30828 418.266 8.18804 421.52 7.38787C424.774 6.58771 428.881 6.18762 433.842 6.18762C438.803 6.18762 442.884 6.58771 446.085 7.38787C449.339 8.18804 451.873 9.30828 453.686 10.7486C455.554 12.1889 456.834 13.9226 457.527 15.9497C458.274 17.9234 458.648 20.1372 458.648 22.5911V49.8768ZM427.121 46.9962C427.121 48.0631 427.521 48.9699 428.321 49.7168C429.121 50.4102 430.962 50.757 433.842 50.757C436.723 50.757 438.563 50.4102 439.363 49.7168C440.164 48.9699 440.564 48.0631 440.564 46.9962V25.4717C440.564 24.4581 440.164 23.6046 439.363 22.9111C438.563 22.1643 436.723 21.7909 433.842 21.7909C430.962 21.7909 429.121 22.1643 428.321 22.9111C427.521 23.6046 427.121 24.4581 427.121 25.4717V46.9962Z" stroke="black" stroke-width="11.6418" mask="url(#path-1-outside-1_94_24)"/>
<path d="M485.317 65H473.315C472.301 65 471.555 64.7866 471.074 64.3598C470.648 63.8797 470.434 63.1329 470.434 62.1194V10.2685C470.434 9.25493 470.648 8.53478 471.074 8.10802C471.555 7.62792 472.301 7.38787 473.315 7.38787H481.637C482.65 7.38787 483.504 7.54791 484.197 7.86797C484.944 8.18804 485.664 8.74816 486.358 9.54833L501.881 27.3121V10.2685C501.881 9.25493 502.094 8.53478 502.521 8.10802C503.001 7.62792 503.748 7.38787 504.762 7.38787H516.764C517.778 7.38787 518.498 7.62792 518.925 8.10802C519.405 8.53478 519.645 9.25493 519.645 10.2685V62.1194C519.645 63.1329 519.405 63.8797 518.925 64.3598C518.498 64.7866 517.778 65 516.764 65H504.762C503.748 65 503.001 64.7866 502.521 64.3598C502.094 63.8797 501.881 63.1329 501.881 62.1194V52.2773L488.198 35.7138V62.1194C488.198 63.1329 487.958 63.8797 487.478 64.3598C487.051 64.7866 486.331 65 485.317 65Z" stroke="black" stroke-width="11.6418" mask="url(#path-1-outside-1_94_24)"/>
</svg>
