<svg width="162" height="23" viewBox="0 0 162 23" fill="none" xmlns="http://www.w3.org/2000/svg">
<mask id="path-1-outside-1_100_2" maskUnits="userSpaceOnUse" x="0" y="0" width="162" height="23" fill="black">
<rect fill="white" width="162" height="23"/>
<path d="M12.3482 20.1094H2.88699C2.5749 20.1094 2.34494 20.0437 2.19711 19.9123C2.0657 19.7644 2 19.5345 2 19.2224V3.25657C2 2.94448 2.0657 2.72273 2.19711 2.59133C2.34494 2.44349 2.5749 2.36958 2.88699 2.36958H10.7467C12.3564 2.36958 13.5473 2.68167 14.3193 3.30585C15.0913 3.9136 15.4773 4.85808 15.4773 6.13929V7.32194C15.4773 8.01182 15.3541 8.57851 15.1077 9.02201C14.8778 9.44908 14.5164 9.76938 14.0237 9.98291C15.0749 10.0815 15.8551 10.4428 16.3643 11.067C16.8735 11.6912 17.1281 12.6028 17.1281 13.8019V16.0687C17.1281 17.4484 16.7339 18.4668 15.9455 19.1238C15.1735 19.7809 13.9744 20.1094 12.3482 20.1094ZM7.54369 6.55815V9.21912H9.63797C9.95006 9.21912 10.18 9.13699 10.3279 8.97273C10.4921 8.80847 10.5742 8.56209 10.5742 8.23357V7.54369C10.5742 7.21518 10.4921 6.96879 10.3279 6.80453C10.18 6.64027 9.95006 6.55815 9.63797 6.55815H7.54369ZM7.54369 13.0135V15.9208H10.7467C11.0588 15.9208 11.2888 15.8387 11.4366 15.6744C11.6009 15.5102 11.683 15.2638 11.683 14.9353V13.9744C11.683 13.6459 11.6009 13.4077 11.4366 13.2599C11.2888 13.0956 11.0588 13.0135 10.7467 13.0135H7.54369Z"/>
<path d="M33.7742 20.1094H21.2331C20.9211 20.1094 20.6911 20.0437 20.5433 19.9123C20.4119 19.7644 20.3462 19.5345 20.3462 19.2224V3.25657C20.3462 2.94448 20.4119 2.72273 20.5433 2.59133C20.6911 2.44349 20.9211 2.36958 21.2331 2.36958H25.0521C25.3642 2.36958 25.586 2.44349 25.7174 2.59133C25.8652 2.72273 25.9391 2.94448 25.9391 3.25657V15.4527H29.3146V11.4612C29.3146 11.1491 29.3803 10.9274 29.5117 10.796C29.6596 10.6482 29.8895 10.5742 30.2016 10.5742H33.7742C34.0863 10.5742 34.308 10.6482 34.4394 10.796C34.5873 10.9274 34.6612 11.1491 34.6612 11.4612V19.2224C34.6612 19.5345 34.5873 19.7644 34.4394 19.9123C34.308 20.0437 34.0863 20.1094 33.7742 20.1094Z"/>
<path d="M53 15.4527C53 16.2083 52.885 16.8982 52.6551 17.5223C52.4416 18.1301 52.0473 18.6557 51.4724 19.0992C50.914 19.5263 50.1337 19.863 49.1318 20.1094C48.1462 20.3558 46.8897 20.479 45.3621 20.479C43.8345 20.479 42.5697 20.3558 41.5677 20.1094C40.5657 19.863 39.7773 19.5263 39.2024 19.0992C38.6439 18.6557 38.2497 18.1301 38.0197 17.5223C37.8062 16.8982 37.6994 16.2083 37.6994 15.4527V7.05092C37.6994 6.29533 37.8062 5.61366 38.0197 5.00591C38.2497 4.38173 38.6439 3.8479 39.2024 3.4044C39.7773 2.96091 40.5657 2.61597 41.5677 2.36958C42.5697 2.12319 43.8345 2 45.3621 2C46.8897 2 48.1462 2.12319 49.1318 2.36958C50.1337 2.61597 50.914 2.96091 51.4724 3.4044C52.0473 3.8479 52.4416 4.38173 52.6551 5.00591C52.885 5.61366 53 6.29533 53 7.05092V15.4527ZM43.2924 14.5657C43.2924 14.8942 43.4156 15.1735 43.662 15.4034C43.9084 15.6169 44.4751 15.7237 45.3621 15.7237C46.249 15.7237 46.8157 15.6169 47.0621 15.4034C47.3085 15.1735 47.4317 14.8942 47.4317 14.5657V7.93791C47.4317 7.62582 47.3085 7.36301 47.0621 7.14947C46.8157 6.91951 46.249 6.80453 45.3621 6.80453C44.4751 6.80453 43.9084 6.91951 43.662 7.14947C43.4156 7.36301 43.2924 7.62582 43.2924 7.93791V14.5657Z"/>
<path d="M68.4313 20.1094H62.4195C60.3663 20.1094 58.8387 19.6987 57.8367 18.8775C56.8512 18.0562 56.3584 16.7914 56.3584 15.0831V7.4205C56.3584 5.71222 56.8512 4.44744 57.8367 3.62615C58.8387 2.78844 60.3663 2.36958 62.4195 2.36958H68.4313C68.7434 2.36958 68.9652 2.44349 69.0966 2.59133C69.2444 2.72273 69.3183 2.94448 69.3183 3.25657V6.23784C69.3183 6.54993 69.2444 6.77989 69.0966 6.92773C68.9652 7.05913 68.7434 7.12483 68.4313 7.12483H63.479C62.9698 7.12483 62.592 7.2316 62.3456 7.44514C62.0992 7.64225 61.976 7.94612 61.976 8.35676V14.2208C61.976 14.6314 62.0992 14.9353 62.3456 15.1324C62.592 15.3131 62.9698 15.4034 63.479 15.4034H68.4313C68.7434 15.4034 68.9652 15.4773 69.0966 15.6252C69.2444 15.7566 69.3183 15.9783 69.3183 16.2904V19.2224C69.3183 19.5345 69.2444 19.7644 69.0966 19.9123C68.9652 20.0437 68.7434 20.1094 68.4313 20.1094Z"/>
<path d="M77.2995 20.1094H73.4805C73.1684 20.1094 72.9385 20.0437 72.7906 19.9123C72.6592 19.7644 72.5935 19.5345 72.5935 19.2224V3.25657C72.5935 2.94448 72.6592 2.72273 72.7906 2.59133C72.9385 2.44349 73.1684 2.36958 73.4805 2.36958H77.2995C77.6116 2.36958 77.8333 2.44349 77.9647 2.59133C78.1126 2.72273 78.1865 2.94448 78.1865 3.25657V8.92345H79.172L81.7098 3.18265C81.8248 2.88699 81.9808 2.68167 82.1779 2.56669C82.3751 2.43528 82.6296 2.36958 82.9417 2.36958H86.7361C87.0153 2.36958 87.2042 2.44349 87.3028 2.59133C87.4013 2.72273 87.3931 2.91984 87.2781 3.18265L84.765 8.92345C85.6848 8.97273 86.4158 9.30125 86.9578 9.909C87.5163 10.5003 87.7956 11.2888 87.7956 12.2743V19.2224C87.7956 19.5345 87.7216 19.7644 87.5738 19.9123C87.4424 20.0437 87.2206 20.1094 86.9086 20.1094H83.1142C82.8021 20.1094 82.5722 20.0437 82.4243 19.9123C82.2929 19.7644 82.2272 19.5345 82.2272 19.2224V14.4179C82.2272 14.1551 82.1615 13.9497 82.0301 13.8019C81.8987 13.6541 81.7016 13.5802 81.4388 13.5802H78.1865V19.2224C78.1865 19.5345 78.1126 19.7644 77.9647 19.9123C77.8333 20.0437 77.6116 20.1094 77.2995 20.1094Z"/>
<path d="M99.2206 20.1094H95.2291C94.917 20.1094 94.6871 20.0437 94.5392 19.9123C94.4078 19.7644 94.3421 19.5345 94.3421 19.2224V7.12483H90.7202C90.4081 7.12483 90.1782 7.05913 90.0303 6.92773C89.8989 6.77989 89.8332 6.54993 89.8332 6.23784V3.25657C89.8332 2.94448 89.8989 2.72273 90.0303 2.59133C90.1782 2.44349 90.4081 2.36958 90.7202 2.36958H103.729C104.042 2.36958 104.263 2.44349 104.395 2.59133C104.542 2.72273 104.616 2.94448 104.616 3.25657V6.23784C104.616 6.54993 104.542 6.77989 104.395 6.92773C104.263 7.05913 104.042 7.12483 103.729 7.12483H100.108V19.2224C100.108 19.5345 100.034 19.7644 99.8858 19.9123C99.7544 20.0437 99.5326 20.1094 99.2206 20.1094Z"/>
<path d="M113.074 6.80453V9.95828H114.922C115.349 9.95828 115.636 9.85151 115.784 9.63797C115.932 9.40801 116.006 9.12878 116.006 8.80026V7.96255C116.006 7.63403 115.932 7.36301 115.784 7.14947C115.636 6.91951 115.349 6.80453 114.922 6.80453H113.074ZM112.187 20.1094H108.392C108.08 20.1094 107.85 20.0437 107.702 19.9123C107.571 19.7644 107.505 19.5345 107.505 19.2224V3.25657C107.505 2.94448 107.571 2.72273 107.702 2.59133C107.85 2.44349 108.08 2.36958 108.392 2.36958H116.597C118.437 2.36958 119.701 2.75558 120.391 3.52759C121.098 4.28318 121.451 5.26872 121.451 6.48423V7.61761C121.451 8.30749 121.344 8.89881 121.13 9.39159C120.933 9.86793 120.58 10.2129 120.071 10.4264C120.958 10.525 121.673 10.8863 122.215 11.5105C122.773 12.1347 123.052 12.9642 123.052 13.999V19.2224C123.052 19.5345 122.978 19.7644 122.831 19.9123C122.699 20.0437 122.477 20.1094 122.165 20.1094H118.346C118.034 20.1094 117.804 20.0437 117.656 19.9123C117.525 19.7644 117.459 19.5345 117.459 19.2224V15.4527C117.459 15.0913 117.385 14.8285 117.238 14.6643C117.106 14.4836 116.868 14.3932 116.523 14.3932H113.074V19.2224C113.074 19.5345 113 19.7644 112.852 19.9123C112.72 20.0437 112.499 20.1094 112.187 20.1094Z"/>
<path d="M141.218 15.4527C141.218 16.2083 141.103 16.8982 140.873 17.5223C140.659 18.1301 140.265 18.6557 139.69 19.0992C139.132 19.5263 138.352 19.863 137.35 20.1094C136.364 20.3558 135.107 20.479 133.58 20.479C132.052 20.479 130.788 20.3558 129.786 20.1094C128.784 19.863 127.995 19.5263 127.42 19.0992C126.862 18.6557 126.468 18.1301 126.238 17.5223C126.024 16.8982 125.917 16.2083 125.917 15.4527V7.05092C125.917 6.29533 126.024 5.61366 126.238 5.00591C126.468 4.38173 126.862 3.8479 127.42 3.4044C127.995 2.96091 128.784 2.61597 129.786 2.36958C130.788 2.12319 132.052 2 133.58 2C135.107 2 136.364 2.12319 137.35 2.36958C138.352 2.61597 139.132 2.96091 139.69 3.4044C140.265 3.8479 140.659 4.38173 140.873 5.00591C141.103 5.61366 141.218 6.29533 141.218 7.05092V15.4527ZM131.51 14.5657C131.51 14.8942 131.633 15.1735 131.88 15.4034C132.126 15.6169 132.693 15.7237 133.58 15.7237C134.467 15.7237 135.034 15.6169 135.28 15.4034C135.526 15.1735 135.65 14.8942 135.65 14.5657V7.93791C135.65 7.62582 135.526 7.36301 135.28 7.14947C135.034 6.91951 134.467 6.80453 133.58 6.80453C132.693 6.80453 132.126 6.91951 131.88 7.14947C131.633 7.36301 131.51 7.62582 131.51 7.93791V14.5657Z"/>
<path d="M149.43 20.1094H145.734C145.422 20.1094 145.192 20.0437 145.044 19.9123C144.913 19.7644 144.847 19.5345 144.847 19.2224V3.25657C144.847 2.94448 144.913 2.72273 145.044 2.59133C145.192 2.44349 145.422 2.36958 145.734 2.36958H148.297C148.609 2.36958 148.872 2.41886 149.085 2.51741C149.315 2.61597 149.537 2.78844 149.75 3.03482L154.53 8.5046V3.25657C154.53 2.94448 154.596 2.72273 154.727 2.59133C154.875 2.44349 155.105 2.36958 155.417 2.36958H159.113C159.425 2.36958 159.647 2.44349 159.778 2.59133C159.926 2.72273 160 2.94448 160 3.25657V19.2224C160 19.5345 159.926 19.7644 159.778 19.9123C159.647 20.0437 159.425 20.1094 159.113 20.1094H155.417C155.105 20.1094 154.875 20.0437 154.727 19.9123C154.596 19.7644 154.53 19.5345 154.53 19.2224V16.1918L150.317 11.0917V19.2224C150.317 19.5345 150.243 19.7644 150.095 19.9123C149.964 20.0437 149.742 20.1094 149.43 20.1094Z"/>
</mask>
<path d="M12.3482 20.1094H2.88699C2.5749 20.1094 2.34494 20.0437 2.19711 19.9123C2.0657 19.7644 2 19.5345 2 19.2224V3.25657C2 2.94448 2.0657 2.72273 2.19711 2.59133C2.34494 2.44349 2.5749 2.36958 2.88699 2.36958H10.7467C12.3564 2.36958 13.5473 2.68167 14.3193 3.30585C15.0913 3.9136 15.4773 4.85808 15.4773 6.13929V7.32194C15.4773 8.01182 15.3541 8.57851 15.1077 9.02201C14.8778 9.44908 14.5164 9.76938 14.0237 9.98291C15.0749 10.0815 15.8551 10.4428 16.3643 11.067C16.8735 11.6912 17.1281 12.6028 17.1281 13.8019V16.0687C17.1281 17.4484 16.7339 18.4668 15.9455 19.1238C15.1735 19.7809 13.9744 20.1094 12.3482 20.1094ZM7.54369 6.55815V9.21912H9.63797C9.95006 9.21912 10.18 9.13699 10.3279 8.97273C10.4921 8.80847 10.5742 8.56209 10.5742 8.23357V7.54369C10.5742 7.21518 10.4921 6.96879 10.3279 6.80453C10.18 6.64027 9.95006 6.55815 9.63797 6.55815H7.54369ZM7.54369 13.0135V15.9208H10.7467C11.0588 15.9208 11.2888 15.8387 11.4366 15.6744C11.6009 15.5102 11.683 15.2638 11.683 14.9353V13.9744C11.683 13.6459 11.6009 13.4077 11.4366 13.2599C11.2888 13.0956 11.0588 13.0135 10.7467 13.0135H7.54369Z" fill="white"/>
<path d="M33.7742 20.1094H21.2331C20.9211 20.1094 20.6911 20.0437 20.5433 19.9123C20.4119 19.7644 20.3462 19.5345 20.3462 19.2224V3.25657C20.3462 2.94448 20.4119 2.72273 20.5433 2.59133C20.6911 2.44349 20.9211 2.36958 21.2331 2.36958H25.0521C25.3642 2.36958 25.586 2.44349 25.7174 2.59133C25.8652 2.72273 25.9391 2.94448 25.9391 3.25657V15.4527H29.3146V11.4612C29.3146 11.1491 29.3803 10.9274 29.5117 10.796C29.6596 10.6482 29.8895 10.5742 30.2016 10.5742H33.7742C34.0863 10.5742 34.308 10.6482 34.4394 10.796C34.5873 10.9274 34.6612 11.1491 34.6612 11.4612V19.2224C34.6612 19.5345 34.5873 19.7644 34.4394 19.9123C34.308 20.0437 34.0863 20.1094 33.7742 20.1094Z" fill="white"/>
<path d="M53 15.4527C53 16.2083 52.885 16.8982 52.6551 17.5223C52.4416 18.1301 52.0473 18.6557 51.4724 19.0992C50.914 19.5263 50.1337 19.863 49.1318 20.1094C48.1462 20.3558 46.8897 20.479 45.3621 20.479C43.8345 20.479 42.5697 20.3558 41.5677 20.1094C40.5657 19.863 39.7773 19.5263 39.2024 19.0992C38.6439 18.6557 38.2497 18.1301 38.0197 17.5223C37.8062 16.8982 37.6994 16.2083 37.6994 15.4527V7.05092C37.6994 6.29533 37.8062 5.61366 38.0197 5.00591C38.2497 4.38173 38.6439 3.8479 39.2024 3.4044C39.7773 2.96091 40.5657 2.61597 41.5677 2.36958C42.5697 2.12319 43.8345 2 45.3621 2C46.8897 2 48.1462 2.12319 49.1318 2.36958C50.1337 2.61597 50.914 2.96091 51.4724 3.4044C52.0473 3.8479 52.4416 4.38173 52.6551 5.00591C52.885 5.61366 53 6.29533 53 7.05092V15.4527ZM43.2924 14.5657C43.2924 14.8942 43.4156 15.1735 43.662 15.4034C43.9084 15.6169 44.4751 15.7237 45.3621 15.7237C46.249 15.7237 46.8157 15.6169 47.0621 15.4034C47.3085 15.1735 47.4317 14.8942 47.4317 14.5657V7.93791C47.4317 7.62582 47.3085 7.36301 47.0621 7.14947C46.8157 6.91951 46.249 6.80453 45.3621 6.80453C44.4751 6.80453 43.9084 6.91951 43.662 7.14947C43.4156 7.36301 43.2924 7.62582 43.2924 7.93791V14.5657Z" fill="white"/>
<path d="M68.4313 20.1094H62.4195C60.3663 20.1094 58.8387 19.6987 57.8367 18.8775C56.8512 18.0562 56.3584 16.7914 56.3584 15.0831V7.4205C56.3584 5.71222 56.8512 4.44744 57.8367 3.62615C58.8387 2.78844 60.3663 2.36958 62.4195 2.36958H68.4313C68.7434 2.36958 68.9652 2.44349 69.0966 2.59133C69.2444 2.72273 69.3183 2.94448 69.3183 3.25657V6.23784C69.3183 6.54993 69.2444 6.77989 69.0966 6.92773C68.9652 7.05913 68.7434 7.12483 68.4313 7.12483H63.479C62.9698 7.12483 62.592 7.2316 62.3456 7.44514C62.0992 7.64225 61.976 7.94612 61.976 8.35676V14.2208C61.976 14.6314 62.0992 14.9353 62.3456 15.1324C62.592 15.3131 62.9698 15.4034 63.479 15.4034H68.4313C68.7434 15.4034 68.9652 15.4773 69.0966 15.6252C69.2444 15.7566 69.3183 15.9783 69.3183 16.2904V19.2224C69.3183 19.5345 69.2444 19.7644 69.0966 19.9123C68.9652 20.0437 68.7434 20.1094 68.4313 20.1094Z" fill="white"/>
<path d="M77.2995 20.1094H73.4805C73.1684 20.1094 72.9385 20.0437 72.7906 19.9123C72.6592 19.7644 72.5935 19.5345 72.5935 19.2224V3.25657C72.5935 2.94448 72.6592 2.72273 72.7906 2.59133C72.9385 2.44349 73.1684 2.36958 73.4805 2.36958H77.2995C77.6116 2.36958 77.8333 2.44349 77.9647 2.59133C78.1126 2.72273 78.1865 2.94448 78.1865 3.25657V8.92345H79.172L81.7098 3.18265C81.8248 2.88699 81.9808 2.68167 82.1779 2.56669C82.3751 2.43528 82.6296 2.36958 82.9417 2.36958H86.7361C87.0153 2.36958 87.2042 2.44349 87.3028 2.59133C87.4013 2.72273 87.3931 2.91984 87.2781 3.18265L84.765 8.92345C85.6848 8.97273 86.4158 9.30125 86.9578 9.909C87.5163 10.5003 87.7956 11.2888 87.7956 12.2743V19.2224C87.7956 19.5345 87.7216 19.7644 87.5738 19.9123C87.4424 20.0437 87.2206 20.1094 86.9086 20.1094H83.1142C82.8021 20.1094 82.5722 20.0437 82.4243 19.9123C82.2929 19.7644 82.2272 19.5345 82.2272 19.2224V14.4179C82.2272 14.1551 82.1615 13.9497 82.0301 13.8019C81.8987 13.6541 81.7016 13.5802 81.4388 13.5802H78.1865V19.2224C78.1865 19.5345 78.1126 19.7644 77.9647 19.9123C77.8333 20.0437 77.6116 20.1094 77.2995 20.1094Z" fill="white"/>
<path d="M99.2206 20.1094H95.2291C94.917 20.1094 94.6871 20.0437 94.5392 19.9123C94.4078 19.7644 94.3421 19.5345 94.3421 19.2224V7.12483H90.7202C90.4081 7.12483 90.1782 7.05913 90.0303 6.92773C89.8989 6.77989 89.8332 6.54993 89.8332 6.23784V3.25657C89.8332 2.94448 89.8989 2.72273 90.0303 2.59133C90.1782 2.44349 90.4081 2.36958 90.7202 2.36958H103.729C104.042 2.36958 104.263 2.44349 104.395 2.59133C104.542 2.72273 104.616 2.94448 104.616 3.25657V6.23784C104.616 6.54993 104.542 6.77989 104.395 6.92773C104.263 7.05913 104.042 7.12483 103.729 7.12483H100.108V19.2224C100.108 19.5345 100.034 19.7644 99.8858 19.9123C99.7544 20.0437 99.5326 20.1094 99.2206 20.1094Z" fill="white"/>
<path d="M113.074 6.80453V9.95828H114.922C115.349 9.95828 115.636 9.85151 115.784 9.63797C115.932 9.40801 116.006 9.12878 116.006 8.80026V7.96255C116.006 7.63403 115.932 7.36301 115.784 7.14947C115.636 6.91951 115.349 6.80453 114.922 6.80453H113.074ZM112.187 20.1094H108.392C108.08 20.1094 107.85 20.0437 107.702 19.9123C107.571 19.7644 107.505 19.5345 107.505 19.2224V3.25657C107.505 2.94448 107.571 2.72273 107.702 2.59133C107.85 2.44349 108.08 2.36958 108.392 2.36958H116.597C118.437 2.36958 119.701 2.75558 120.391 3.52759C121.098 4.28318 121.451 5.26872 121.451 6.48423V7.61761C121.451 8.30749 121.344 8.89881 121.13 9.39159C120.933 9.86793 120.58 10.2129 120.071 10.4264C120.958 10.525 121.673 10.8863 122.215 11.5105C122.773 12.1347 123.052 12.9642 123.052 13.999V19.2224C123.052 19.5345 122.978 19.7644 122.831 19.9123C122.699 20.0437 122.477 20.1094 122.165 20.1094H118.346C118.034 20.1094 117.804 20.0437 117.656 19.9123C117.525 19.7644 117.459 19.5345 117.459 19.2224V15.4527C117.459 15.0913 117.385 14.8285 117.238 14.6643C117.106 14.4836 116.868 14.3932 116.523 14.3932H113.074V19.2224C113.074 19.5345 113 19.7644 112.852 19.9123C112.72 20.0437 112.499 20.1094 112.187 20.1094Z" fill="white"/>
<path d="M141.218 15.4527C141.218 16.2083 141.103 16.8982 140.873 17.5223C140.659 18.1301 140.265 18.6557 139.69 19.0992C139.132 19.5263 138.352 19.863 137.35 20.1094C136.364 20.3558 135.107 20.479 133.58 20.479C132.052 20.479 130.788 20.3558 129.786 20.1094C128.784 19.863 127.995 19.5263 127.42 19.0992C126.862 18.6557 126.468 18.1301 126.238 17.5223C126.024 16.8982 125.917 16.2083 125.917 15.4527V7.05092C125.917 6.29533 126.024 5.61366 126.238 5.00591C126.468 4.38173 126.862 3.8479 127.42 3.4044C127.995 2.96091 128.784 2.61597 129.786 2.36958C130.788 2.12319 132.052 2 133.58 2C135.107 2 136.364 2.12319 137.35 2.36958C138.352 2.61597 139.132 2.96091 139.69 3.4044C140.265 3.8479 140.659 4.38173 140.873 5.00591C141.103 5.61366 141.218 6.29533 141.218 7.05092V15.4527ZM131.51 14.5657C131.51 14.8942 131.633 15.1735 131.88 15.4034C132.126 15.6169 132.693 15.7237 133.58 15.7237C134.467 15.7237 135.034 15.6169 135.28 15.4034C135.526 15.1735 135.65 14.8942 135.65 14.5657V7.93791C135.65 7.62582 135.526 7.36301 135.28 7.14947C135.034 6.91951 134.467 6.80453 133.58 6.80453C132.693 6.80453 132.126 6.91951 131.88 7.14947C131.633 7.36301 131.51 7.62582 131.51 7.93791V14.5657Z" fill="white"/>
<path d="M149.43 20.1094H145.734C145.422 20.1094 145.192 20.0437 145.044 19.9123C144.913 19.7644 144.847 19.5345 144.847 19.2224V3.25657C144.847 2.94448 144.913 2.72273 145.044 2.59133C145.192 2.44349 145.422 2.36958 145.734 2.36958H148.297C148.609 2.36958 148.872 2.41886 149.085 2.51741C149.315 2.61597 149.537 2.78844 149.75 3.03482L154.53 8.5046V3.25657C154.53 2.94448 154.596 2.72273 154.727 2.59133C154.875 2.44349 155.105 2.36958 155.417 2.36958H159.113C159.425 2.36958 159.647 2.44349 159.778 2.59133C159.926 2.72273 160 2.94448 160 3.25657V19.2224C160 19.5345 159.926 19.7644 159.778 19.9123C159.647 20.0437 159.425 20.1094 159.113 20.1094H155.417C155.105 20.1094 154.875 20.0437 154.727 19.9123C154.596 19.7644 154.53 19.5345 154.53 19.2224V16.1918L150.317 11.0917V19.2224C150.317 19.5345 150.243 19.7644 150.095 19.9123C149.964 20.0437 149.742 20.1094 149.43 20.1094Z" fill="white"/>
<path d="M12.3482 20.1094H2.88699C2.5749 20.1094 2.34494 20.0437 2.19711 19.9123C2.0657 19.7644 2 19.5345 2 19.2224V3.25657C2 2.94448 2.0657 2.72273 2.19711 2.59133C2.34494 2.44349 2.5749 2.36958 2.88699 2.36958H10.7467C12.3564 2.36958 13.5473 2.68167 14.3193 3.30585C15.0913 3.9136 15.4773 4.85808 15.4773 6.13929V7.32194C15.4773 8.01182 15.3541 8.57851 15.1077 9.02201C14.8778 9.44908 14.5164 9.76938 14.0237 9.98291C15.0749 10.0815 15.8551 10.4428 16.3643 11.067C16.8735 11.6912 17.1281 12.6028 17.1281 13.8019V16.0687C17.1281 17.4484 16.7339 18.4668 15.9455 19.1238C15.1735 19.7809 13.9744 20.1094 12.3482 20.1094ZM7.54369 6.55815V9.21912H9.63797C9.95006 9.21912 10.18 9.13699 10.3279 8.97273C10.4921 8.80847 10.5742 8.56209 10.5742 8.23357V7.54369C10.5742 7.21518 10.4921 6.96879 10.3279 6.80453C10.18 6.64027 9.95006 6.55815 9.63797 6.55815H7.54369ZM7.54369 13.0135V15.9208H10.7467C11.0588 15.9208 11.2888 15.8387 11.4366 15.6744C11.6009 15.5102 11.683 15.2638 11.683 14.9353V13.9744C11.683 13.6459 11.6009 13.4077 11.4366 13.2599C11.2888 13.0956 11.0588 13.0135 10.7467 13.0135H7.54369Z" stroke="black" stroke-width="3.58472" mask="url(#path-1-outside-1_100_2)"/>
<path d="M33.7742 20.1094H21.2331C20.9211 20.1094 20.6911 20.0437 20.5433 19.9123C20.4119 19.7644 20.3462 19.5345 20.3462 19.2224V3.25657C20.3462 2.94448 20.4119 2.72273 20.5433 2.59133C20.6911 2.44349 20.9211 2.36958 21.2331 2.36958H25.0521C25.3642 2.36958 25.586 2.44349 25.7174 2.59133C25.8652 2.72273 25.9391 2.94448 25.9391 3.25657V15.4527H29.3146V11.4612C29.3146 11.1491 29.3803 10.9274 29.5117 10.796C29.6596 10.6482 29.8895 10.5742 30.2016 10.5742H33.7742C34.0863 10.5742 34.308 10.6482 34.4394 10.796C34.5873 10.9274 34.6612 11.1491 34.6612 11.4612V19.2224C34.6612 19.5345 34.5873 19.7644 34.4394 19.9123C34.308 20.0437 34.0863 20.1094 33.7742 20.1094Z" stroke="black" stroke-width="3.58472" mask="url(#path-1-outside-1_100_2)"/>
<path d="M53 15.4527C53 16.2083 52.885 16.8982 52.6551 17.5223C52.4416 18.1301 52.0473 18.6557 51.4724 19.0992C50.914 19.5263 50.1337 19.863 49.1318 20.1094C48.1462 20.3558 46.8897 20.479 45.3621 20.479C43.8345 20.479 42.5697 20.3558 41.5677 20.1094C40.5657 19.863 39.7773 19.5263 39.2024 19.0992C38.6439 18.6557 38.2497 18.1301 38.0197 17.5223C37.8062 16.8982 37.6994 16.2083 37.6994 15.4527V7.05092C37.6994 6.29533 37.8062 5.61366 38.0197 5.00591C38.2497 4.38173 38.6439 3.8479 39.2024 3.4044C39.7773 2.96091 40.5657 2.61597 41.5677 2.36958C42.5697 2.12319 43.8345 2 45.3621 2C46.8897 2 48.1462 2.12319 49.1318 2.36958C50.1337 2.61597 50.914 2.96091 51.4724 3.4044C52.0473 3.8479 52.4416 4.38173 52.6551 5.00591C52.885 5.61366 53 6.29533 53 7.05092V15.4527ZM43.2924 14.5657C43.2924 14.8942 43.4156 15.1735 43.662 15.4034C43.9084 15.6169 44.4751 15.7237 45.3621 15.7237C46.249 15.7237 46.8157 15.6169 47.0621 15.4034C47.3085 15.1735 47.4317 14.8942 47.4317 14.5657V7.93791C47.4317 7.62582 47.3085 7.36301 47.0621 7.14947C46.8157 6.91951 46.249 6.80453 45.3621 6.80453C44.4751 6.80453 43.9084 6.91951 43.662 7.14947C43.4156 7.36301 43.2924 7.62582 43.2924 7.93791V14.5657Z" stroke="black" stroke-width="3.58472" mask="url(#path-1-outside-1_100_2)"/>
<path d="M68.4313 20.1094H62.4195C60.3663 20.1094 58.8387 19.6987 57.8367 18.8775C56.8512 18.0562 56.3584 16.7914 56.3584 15.0831V7.4205C56.3584 5.71222 56.8512 4.44744 57.8367 3.62615C58.8387 2.78844 60.3663 2.36958 62.4195 2.36958H68.4313C68.7434 2.36958 68.9652 2.44349 69.0966 2.59133C69.2444 2.72273 69.3183 2.94448 69.3183 3.25657V6.23784C69.3183 6.54993 69.2444 6.77989 69.0966 6.92773C68.9652 7.05913 68.7434 7.12483 68.4313 7.12483H63.479C62.9698 7.12483 62.592 7.2316 62.3456 7.44514C62.0992 7.64225 61.976 7.94612 61.976 8.35676V14.2208C61.976 14.6314 62.0992 14.9353 62.3456 15.1324C62.592 15.3131 62.9698 15.4034 63.479 15.4034H68.4313C68.7434 15.4034 68.9652 15.4773 69.0966 15.6252C69.2444 15.7566 69.3183 15.9783 69.3183 16.2904V19.2224C69.3183 19.5345 69.2444 19.7644 69.0966 19.9123C68.9652 20.0437 68.7434 20.1094 68.4313 20.1094Z" stroke="black" stroke-width="3.58472" mask="url(#path-1-outside-1_100_2)"/>
<path d="M77.2995 20.1094H73.4805C73.1684 20.1094 72.9385 20.0437 72.7906 19.9123C72.6592 19.7644 72.5935 19.5345 72.5935 19.2224V3.25657C72.5935 2.94448 72.6592 2.72273 72.7906 2.59133C72.9385 2.44349 73.1684 2.36958 73.4805 2.36958H77.2995C77.6116 2.36958 77.8333 2.44349 77.9647 2.59133C78.1126 2.72273 78.1865 2.94448 78.1865 3.25657V8.92345H79.172L81.7098 3.18265C81.8248 2.88699 81.9808 2.68167 82.1779 2.56669C82.3751 2.43528 82.6296 2.36958 82.9417 2.36958H86.7361C87.0153 2.36958 87.2042 2.44349 87.3028 2.59133C87.4013 2.72273 87.3931 2.91984 87.2781 3.18265L84.765 8.92345C85.6848 8.97273 86.4158 9.30125 86.9578 9.909C87.5163 10.5003 87.7956 11.2888 87.7956 12.2743V19.2224C87.7956 19.5345 87.7216 19.7644 87.5738 19.9123C87.4424 20.0437 87.2206 20.1094 86.9086 20.1094H83.1142C82.8021 20.1094 82.5722 20.0437 82.4243 19.9123C82.2929 19.7644 82.2272 19.5345 82.2272 19.2224V14.4179C82.2272 14.1551 82.1615 13.9497 82.0301 13.8019C81.8987 13.6541 81.7016 13.5802 81.4388 13.5802H78.1865V19.2224C78.1865 19.5345 78.1126 19.7644 77.9647 19.9123C77.8333 20.0437 77.6116 20.1094 77.2995 20.1094Z" stroke="black" stroke-width="3.58472" mask="url(#path-1-outside-1_100_2)"/>
<path d="M99.2206 20.1094H95.2291C94.917 20.1094 94.6871 20.0437 94.5392 19.9123C94.4078 19.7644 94.3421 19.5345 94.3421 19.2224V7.12483H90.7202C90.4081 7.12483 90.1782 7.05913 90.0303 6.92773C89.8989 6.77989 89.8332 6.54993 89.8332 6.23784V3.25657C89.8332 2.94448 89.8989 2.72273 90.0303 2.59133C90.1782 2.44349 90.4081 2.36958 90.7202 2.36958H103.729C104.042 2.36958 104.263 2.44349 104.395 2.59133C104.542 2.72273 104.616 2.94448 104.616 3.25657V6.23784C104.616 6.54993 104.542 6.77989 104.395 6.92773C104.263 7.05913 104.042 7.12483 103.729 7.12483H100.108V19.2224C100.108 19.5345 100.034 19.7644 99.8858 19.9123C99.7544 20.0437 99.5326 20.1094 99.2206 20.1094Z" stroke="black" stroke-width="3.58472" mask="url(#path-1-outside-1_100_2)"/>
<path d="M113.074 6.80453V9.95828H114.922C115.349 9.95828 115.636 9.85151 115.784 9.63797C115.932 9.40801 116.006 9.12878 116.006 8.80026V7.96255C116.006 7.63403 115.932 7.36301 115.784 7.14947C115.636 6.91951 115.349 6.80453 114.922 6.80453H113.074ZM112.187 20.1094H108.392C108.08 20.1094 107.85 20.0437 107.702 19.9123C107.571 19.7644 107.505 19.5345 107.505 19.2224V3.25657C107.505 2.94448 107.571 2.72273 107.702 2.59133C107.85 2.44349 108.08 2.36958 108.392 2.36958H116.597C118.437 2.36958 119.701 2.75558 120.391 3.52759C121.098 4.28318 121.451 5.26872 121.451 6.48423V7.61761C121.451 8.30749 121.344 8.89881 121.13 9.39159C120.933 9.86793 120.58 10.2129 120.071 10.4264C120.958 10.525 121.673 10.8863 122.215 11.5105C122.773 12.1347 123.052 12.9642 123.052 13.999V19.2224C123.052 19.5345 122.978 19.7644 122.831 19.9123C122.699 20.0437 122.477 20.1094 122.165 20.1094H118.346C118.034 20.1094 117.804 20.0437 117.656 19.9123C117.525 19.7644 117.459 19.5345 117.459 19.2224V15.4527C117.459 15.0913 117.385 14.8285 117.238 14.6643C117.106 14.4836 116.868 14.3932 116.523 14.3932H113.074V19.2224C113.074 19.5345 113 19.7644 112.852 19.9123C112.72 20.0437 112.499 20.1094 112.187 20.1094Z" stroke="black" stroke-width="3.58472" mask="url(#path-1-outside-1_100_2)"/>
<path d="M141.218 15.4527C141.218 16.2083 141.103 16.8982 140.873 17.5223C140.659 18.1301 140.265 18.6557 139.69 19.0992C139.132 19.5263 138.352 19.863 137.35 20.1094C136.364 20.3558 135.107 20.479 133.58 20.479C132.052 20.479 130.788 20.3558 129.786 20.1094C128.784 19.863 127.995 19.5263 127.42 19.0992C126.862 18.6557 126.468 18.1301 126.238 17.5223C126.024 16.8982 125.917 16.2083 125.917 15.4527V7.05092C125.917 6.29533 126.024 5.61366 126.238 5.00591C126.468 4.38173 126.862 3.8479 127.42 3.4044C127.995 2.96091 128.784 2.61597 129.786 2.36958C130.788 2.12319 132.052 2 133.58 2C135.107 2 136.364 2.12319 137.35 2.36958C138.352 2.61597 139.132 2.96091 139.69 3.4044C140.265 3.8479 140.659 4.38173 140.873 5.00591C141.103 5.61366 141.218 6.29533 141.218 7.05092V15.4527ZM131.51 14.5657C131.51 14.8942 131.633 15.1735 131.88 15.4034C132.126 15.6169 132.693 15.7237 133.58 15.7237C134.467 15.7237 135.034 15.6169 135.28 15.4034C135.526 15.1735 135.65 14.8942 135.65 14.5657V7.93791C135.65 7.62582 135.526 7.36301 135.28 7.14947C135.034 6.91951 134.467 6.80453 133.58 6.80453C132.693 6.80453 132.126 6.91951 131.88 7.14947C131.633 7.36301 131.51 7.62582 131.51 7.93791V14.5657Z" stroke="black" stroke-width="3.58472" mask="url(#path-1-outside-1_100_2)"/>
<path d="M149.43 20.1094H145.734C145.422 20.1094 145.192 20.0437 145.044 19.9123C144.913 19.7644 144.847 19.5345 144.847 19.2224V3.25657C144.847 2.94448 144.913 2.72273 145.044 2.59133C145.192 2.44349 145.422 2.36958 145.734 2.36958H148.297C148.609 2.36958 148.872 2.41886 149.085 2.51741C149.315 2.61597 149.537 2.78844 149.75 3.03482L154.53 8.5046V3.25657C154.53 2.94448 154.596 2.72273 154.727 2.59133C154.875 2.44349 155.105 2.36958 155.417 2.36958H159.113C159.425 2.36958 159.647 2.44349 159.778 2.59133C159.926 2.72273 160 2.94448 160 3.25657V19.2224C160 19.5345 159.926 19.7644 159.778 19.9123C159.647 20.0437 159.425 20.1094 159.113 20.1094H155.417C155.105 20.1094 154.875 20.0437 154.727 19.9123C154.596 19.7644 154.53 19.5345 154.53 19.2224V16.1918L150.317 11.0917V19.2224C150.317 19.5345 150.243 19.7644 150.095 19.9123C149.964 20.0437 149.742 20.1094 149.43 20.1094Z" stroke="black" stroke-width="3.58472" mask="url(#path-1-outside-1_100_2)"/>
</svg>
